<svg width="60" height="60" viewBox="0 0 60 60" fill="none" xmlns="http://www.w3.org/2000/svg">
    <path d="M45.7439 4.45825C54.2991 9.74289 60 19.2057 60 30C60 46.5685 46.5685 60 30 60C26.3869 60 22.923 59.3613 19.7159 58.1896L19.3733 58.062L19.9312 57.8829L20.6484 57.6476L21.0022 57.5294L21.3529 57.4109L22.0447 57.1725L22.7239 56.9326L23.3904 56.6911L24.0443 56.4481L24.3664 56.3259L25.0013 56.0804C25.6717 55.8177 26.3206 55.5522 26.9479 55.2838L27.4143 55.082L27.9859 54.8281C28.2371 54.715 28.4846 54.6013 28.7284 54.4871L29.0912 54.3154L29.6249 54.0564L29.887 53.9262L30.146 53.7956L30.6545 53.5331C34.9227 51.2942 37.8227 48.862 39.3623 46.1953C42.6244 40.5451 39.7754 34.5071 31.5968 28.3514L30.9312 27.8524L30.5269 27.5424L30.1344 27.2347L29.7536 26.9293L29.3845 26.6263L29.2043 26.4757L29.027 26.3257L28.6812 26.0273L28.4293 25.805L28.184 25.5841L27.867 25.2914L27.5615 25.0011L27.2673 24.713L27.1245 24.5698L26.9846 24.4272L26.7132 24.1436C23.4802 20.7067 22.7582 17.7645 24.226 15.2223C24.973 13.9284 26.2682 12.6562 28.1092 11.4173L28.3327 11.2688L28.6847 11.0423C28.8439 10.9418 29.0067 10.8415 29.1731 10.7415L29.4255 10.5916L29.8143 10.3675L30.2153 10.1441L30.524 9.97718L30.8397 9.8107L31.2713 9.58949C31.5996 9.4239 31.9382 9.25905 32.2871 9.09497L32.6395 8.93114L33.12 8.71351L33.3648 8.60504L33.8636 8.38882L34.1176 8.28107L34.6348 8.06629L34.8979 7.95927L35.4334 7.74597L35.7057 7.6397L36.2595 7.42791L36.8255 7.21716L37.113 7.11217L37.6973 6.90299L38.2937 6.69488L38.9024 6.48785L39.2113 6.38475L39.8382 6.17938L40.4773 5.97513L41.1286 5.77202L41.7921 5.57006L42.4677 5.36927L43.3294 5.11996L44.21 4.87253L45.2919 4.57815L45.7439 4.45825ZM30 0C33.6483 0 37.1445 0.651227 40.3787 1.84378L40.7242 1.97362L40.5051 2.03994L39.4366 2.36931L39.0867 2.47996L38.3963 2.70254L37.7186 2.92685L37.0534 3.15292L36.4008 3.38074L35.7608 3.61035L35.4455 3.72583L34.671 4.0165L33.9162 4.31002L33.3264 4.54691L33.0363 4.66605L32.4654 4.90574C26.6308 7.39217 22.807 10.1801 20.9784 13.3473C17.7869 18.8751 20.6816 24.8342 28.8611 30.9882L29.5266 31.4872L29.9308 31.7975L30.3231 32.1055L30.5148 32.2587L30.8895 32.5634L31.1627 32.7905L31.4294 33.0164L31.7747 33.3157L31.943 33.4645L32.2709 33.7605C32.4498 33.9244 32.6234 34.0873 32.7916 34.2492L33.04 34.4913L33.3975 34.8518L33.7372 35.2089C36.9564 38.6697 37.6444 41.6707 36.1147 44.3203C35.1249 46.0348 33.235 47.7225 30.4495 49.3609L30.1938 49.5097L29.7794 49.7445L29.3526 49.9785C29.1121 50.1084 28.8659 50.2379 28.6139 50.367L28.2318 50.5605L27.7618 50.792L27.2796 51.0227L26.785 51.2526L26.5331 51.3673L26.0201 51.596L25.4948 51.8239L24.9571 52.0509L24.6836 52.1641L24.1275 52.3899L23.8449 52.5025L23.5591 52.6148L22.9784 52.8388L22.3854 53.0619L21.78 53.2841L21.1624 53.5053L20.5325 53.7256L20.213 53.8354L19.5646 54.0542L19.2359 54.1632L18.5691 54.3806L17.8901 54.5969L17.024 54.8659L16.1388 55.1332L15.4168 55.3459L14.4092 55.6357C5.76901 50.3698 0 40.8586 0 30C0 13.4315 13.4315 0 30 0Z" fill="#0080FF"/>
</svg>
